<?xml version="1.0" encoding="UTF-8" standalone="no"?>
<!DOCTYPE svg PUBLIC "-//W3C//DTD SVG 1.1//EN" "http://www.w3.org/Graphics/SVG/1.1/DTD/svg11.dtd">
<svg width="100%" height="100%" viewBox="0 0 490 631" version="1.1" xmlns="http://www.w3.org/2000/svg" xmlns:xlink="http://www.w3.org/1999/xlink" xml:space="preserve" xmlns:serif="http://www.serif.com/" style="fill-rule:evenodd;clip-rule:evenodd;stroke-linejoin:round;stroke-miterlimit:2;">
    <g transform="matrix(1,0,0,1,-214,-2116)">
        <g transform="matrix(1.1365,0,0,1.1365,0,1982.82)">
            <g transform="matrix(1.9203,0,0,1.9203,-1707.06,-7711.5)">
                <path d="M1090.59,4102.43L1132.55,4076.85L1132.55,4220.12C1132.55,4232 1126.3,4243.06 1116,4249.33L1107.95,4254.23L1107.95,4254.23L1065.99,4279.71L1065.99,4136.54C1065.99,4124.66 1072.24,4113.6 1082.54,4107.33L1090.59,4102.43L1090.59,4102.43ZM1092.36,4177.97L1090.71,4174.48L1110.22,4215.75L1110.33,4215.99L1110.43,4216.23L1110.48,4216.32L1110.54,4216.46L1110.58,4216.57L1110.64,4216.7L1110.68,4216.81L1110.74,4216.94L1110.78,4217.05L1110.83,4217.18L1110.88,4217.29L1110.93,4217.43L1110.97,4217.53L1111.02,4217.67L1111.05,4217.77L1111.1,4217.91L1111.14,4218.02L1111.18,4218.15L1111.22,4218.26L1111.26,4218.4L1111.3,4218.5L1111.34,4218.64L1111.37,4218.74L1111.41,4218.88L1111.45,4218.99L1111.49,4219.13L1111.52,4219.23L1111.55,4219.37L1111.58,4219.48L1111.62,4219.62L1111.64,4219.72L1111.68,4219.86L1111.7,4219.97L1111.74,4220.11L1111.76,4220.21L1111.8,4220.36L1111.82,4220.45L1111.85,4220.6L1111.87,4220.7L1111.9,4220.85L1111.92,4220.95L1111.94,4221.1L1111.96,4221.19L1111.99,4221.34L1112.01,4221.44L1112.03,4221.59L1112.05,4221.68L1112.07,4221.84L1112.08,4221.93L1112.1,4222.09L1112.12,4222.18L1112.14,4222.33L1112.15,4222.42L1112.17,4222.58L1112.18,4222.67L1112.19,4222.83L1112.2,4222.91L1112.22,4223.08L1112.22,4223.16L1112.24,4223.32L1112.24,4223.4L1112.26,4223.57L1112.26,4223.65L1112.27,4223.82L1112.27,4223.9L1112.28,4224.07L1112.29,4224.14L1112.29,4224.32L1112.29,4224.39L1112.3,4224.56L1112.3,4224.64L1112.3,4224.81L1112.3,4224.88L1112.3,4225.06L1112.3,4225.13L1112.3,4225.31L1112.3,4225.37L1112.3,4225.55L1112.29,4225.62L1112.29,4225.8L1112.29,4225.86L1112.28,4226.05L1112.27,4226.11L1112.26,4226.3L1112.26,4226.35L1112.25,4226.54L1112.24,4226.59L1112.23,4226.79L1112.22,4226.84L1112.21,4227.03L1112.2,4227.08L1112.18,4227.28L1112.18,4227.32L1112.15,4227.52L1112.15,4227.57L1112.12,4227.77L1112.12,4227.81L1112.09,4228.01L1112.09,4228.05L1112.06,4228.26L1112.05,4228.29L1112.02,4228.5L1112.01,4228.53L1111.98,4228.74L1111.97,4228.77L1111.93,4228.98L1111.93,4229.02L1111.88,4229.23L1111.88,4229.26L1111.84,4229.47L1111.83,4229.49L1111.78,4229.71L1111.78,4229.73L1111.73,4229.95L1111.72,4229.97L1111.67,4230.19L1111.67,4230.21L1111.61,4230.43L1111.61,4230.44L1111.55,4230.66L1111.54,4230.68L1111.48,4230.9L1111.48,4230.92L1111.41,4231.14L1111.41,4231.15L1111.34,4231.37L1111.34,4231.39L1111.27,4231.61L1111.27,4231.62L1111.19,4231.84L1111.19,4231.85L1111.12,4232.08L1111.11,4232.08L1111.03,4232.31L1111.03,4232.32L1110.95,4232.54L1110.95,4232.55L1110.86,4232.77L1110.86,4232.77L1110.77,4233L1110.77,4233L1110.68,4233.23L1110.59,4233.46C1109.85,4235.2 1108.89,4236.85 1107.71,4238.37L1107.56,4238.57L1107.56,4238.57L1107.4,4238.77L1107.4,4238.77L1107.25,4238.96L1107.24,4238.97L1107.08,4239.15L1107.08,4239.16L1106.92,4239.34L1106.91,4239.35L1106.75,4239.53L1106.75,4239.54L1106.59,4239.72L1106.58,4239.73L1106.42,4239.9L1106.4,4239.92L1106.24,4240.09L1106.23,4240.1L1106.07,4240.27L1106.05,4240.29L1105.89,4240.45L1105.87,4240.47L1105.71,4240.63L1105.69,4240.65L1105.53,4240.81L1105.51,4240.83L1105.35,4240.98L1105.32,4241.01L1105.16,4241.15L1105.13,4241.18L1104.97,4241.32L1104.94,4241.36L1104.78,4241.49L1104.74,4241.53L1104.59,4241.66L1104.55,4241.7L1104.4,4241.82L1104.35,4241.86L1104.2,4241.99L1104.15,4242.03L1104,4242.15L1103.94,4242.19L1103.8,4242.31L1103.74,4242.36L1103.6,4242.47L1103.53,4242.52L1103.39,4242.62L1103.32,4242.67L1103.18,4242.77L1103.11,4242.83L1102.98,4242.92L1102.89,4242.98L1102.76,4243.07L1102.67,4243.13L1102.55,4243.22L1102.45,4243.28L1102.34,4243.36L1102.23,4243.43L1102.12,4243.5L1102.01,4243.57L1101.9,4243.64L1101.78,4243.72L1101.67,4243.78L1078.18,4258.09L1078.18,4147.98L1092.36,4177.97ZM1096.86,4112.88L1120.36,4098.57L1120.36,4208.68L1111.94,4190.88L1111.94,4190.88L1088.32,4140.91L1088.21,4140.67L1088.1,4140.44L1088.06,4140.34L1088,4140.2L1087.96,4140.1L1087.9,4139.96L1087.86,4139.85L1087.8,4139.72L1087.76,4139.61L1087.7,4139.48L1087.66,4139.37L1087.61,4139.23L1087.57,4139.13L1087.52,4138.99L1087.49,4138.89L1087.44,4138.75L1087.4,4138.64L1087.35,4138.51L1087.32,4138.4L1087.27,4138.27L1087.24,4138.16L1087.2,4138.02L1087.16,4137.91L1087.12,4137.78L1087.09,4137.67L1087.05,4137.53L1087.02,4137.43L1086.99,4137.29L1086.96,4137.18L1086.92,4137.04L1086.89,4136.94L1086.86,4136.8L1086.83,4136.69L1086.8,4136.55L1086.78,4136.45L1086.74,4136.31L1086.72,4136.2L1086.69,4136.06L1086.67,4135.96L1086.64,4135.81L1086.62,4135.71L1086.59,4135.56L1086.58,4135.47L1086.55,4135.32L1086.53,4135.22L1086.51,4135.07L1086.49,4134.98L1086.47,4134.82L1086.46,4134.73L1086.43,4134.57L1086.42,4134.48L1086.4,4134.33L1086.39,4134.24L1086.37,4134.08L1086.36,4133.99L1086.35,4133.83L1086.34,4133.75L1086.32,4133.58L1086.32,4133.5L1086.3,4133.34L1086.3,4133.25L1086.28,4133.09L1086.28,4133.01L1086.27,4132.84L1086.26,4132.76L1086.26,4132.59L1086.25,4132.52L1086.25,4132.34L1086.24,4132.27L1086.24,4132.1L1086.24,4132.02L1086.24,4131.85L1086.24,4131.78L1086.24,4131.6L1086.24,4131.53L1086.24,4131.35L1086.24,4131.29L1086.24,4131.11L1086.25,4131.04L1086.25,4130.86L1086.25,4130.8L1086.26,4130.61L1086.26,4130.55L1086.28,4130.36L1086.28,4130.31L1086.29,4130.12L1086.3,4130.07L1086.31,4129.87L1086.31,4129.82L1086.33,4129.63L1086.34,4129.58L1086.36,4129.38L1086.36,4129.34L1086.38,4129.14L1086.39,4129.09L1086.41,4128.89L1086.42,4128.85L1086.45,4128.65L1086.45,4128.61L1086.48,4128.4L1086.49,4128.37L1086.52,4128.16L1086.53,4128.12L1086.56,4127.92L1086.57,4127.88L1086.61,4127.68L1086.61,4127.64L1086.65,4127.43L1086.66,4127.4L1086.7,4127.19L1086.71,4127.16L1086.75,4126.95L1086.76,4126.93L1086.81,4126.71L1086.82,4126.69L1086.87,4126.47L1086.87,4126.45L1086.93,4126.23L1086.93,4126.22L1086.99,4126L1087,4125.98L1087.06,4125.76L1087.06,4125.74L1087.12,4125.52L1087.13,4125.51L1087.19,4125.29L1087.2,4125.27L1087.27,4125.05L1087.27,4125.04L1087.35,4124.82L1087.35,4124.81L1087.42,4124.58L1087.43,4124.58L1087.51,4124.35L1087.51,4124.35L1087.59,4124.12L1087.59,4124.11L1087.68,4123.89L1087.68,4123.89L1087.77,4123.66L1087.77,4123.66L1087.86,4123.43L1087.95,4123.2C1088.69,4121.46 1089.65,4119.81 1090.82,4118.29L1090.98,4118.09L1090.98,4118.09L1091.13,4117.89L1091.14,4117.89L1091.29,4117.7L1091.3,4117.69L1091.45,4117.51L1091.46,4117.5L1091.62,4117.32L1091.62,4117.31L1091.78,4117.13L1091.79,4117.12L1091.95,4116.94L1091.96,4116.93L1092.12,4116.75L1092.13,4116.74L1092.3,4116.57L1092.31,4116.56L1092.47,4116.39L1092.49,4116.37L1092.65,4116.21L1092.67,4116.19L1092.83,4116.03L1092.85,4116.01L1093.01,4115.85L1093.03,4115.83L1093.19,4115.68L1093.22,4115.65L1093.38,4115.51L1093.41,4115.48L1093.57,4115.34L1093.6,4115.31L1093.76,4115.17L1093.79,4115.13L1093.95,4115L1093.99,4114.96L1094.14,4114.84L1094.19,4114.8L1094.34,4114.67L1094.39,4114.63L1094.54,4114.51L1094.59,4114.47L1094.74,4114.35L1094.8,4114.31L1094.94,4114.19L1095.01,4114.15L1095.15,4114.04L1095.22,4113.99L1095.35,4113.89L1095.43,4113.83L1095.56,4113.74L1095.65,4113.68L1095.77,4113.59L1095.86,4113.53L1095.99,4113.44L1096.08,4113.38L1096.2,4113.3L1096.31,4113.23L1096.42,4113.16L1096.53,4113.09L1096.64,4113.02L1096.76,4112.94L1096.86,4112.88Z"/>
            </g>
            <g transform="matrix(1.1555,0,0,0.440206,89.5165,483.281)">
                <g transform="matrix(158.627,0,0,416.38,81.9404,425.377)">
                    <path d="M0.243,0.006C0.384,0.006 0.472,-0.055 0.472,-0.151C0.472,-0.357 0.136,-0.255 0.136,-0.38C0.136,-0.422 0.177,-0.453 0.261,-0.453C0.313,-0.453 0.366,-0.442 0.414,-0.411L0.455,-0.487C0.409,-0.517 0.331,-0.535 0.262,-0.535C0.126,-0.535 0.041,-0.471 0.041,-0.376C0.041,-0.165 0.376,-0.268 0.376,-0.149C0.376,-0.104 0.339,-0.077 0.25,-0.077C0.181,-0.077 0.109,-0.1 0.064,-0.132L0.024,-0.056C0.068,-0.021 0.155,0.006 0.243,0.006Z" style="fill-rule:nonzero;"/>
                </g>
                <g transform="matrix(158.627,0,0,416.38,162.999,425.377)">
                    <path d="M0.284,-0.535C0.199,-0.535 0.12,-0.511 0.065,-0.467L0.105,-0.395C0.146,-0.43 0.21,-0.452 0.273,-0.452C0.368,-0.452 0.415,-0.405 0.415,-0.324L0.415,-0.305L0.263,-0.305C0.105,-0.305 0.05,-0.235 0.05,-0.15C0.05,-0.058 0.126,0.006 0.246,0.006C0.329,0.006 0.388,-0.022 0.42,-0.07L0.42,-0L0.511,-0L0.511,-0.32C0.511,-0.465 0.429,-0.535 0.284,-0.535ZM0.262,-0.068C0.189,-0.068 0.145,-0.101 0.145,-0.154C0.145,-0.199 0.172,-0.236 0.267,-0.236L0.415,-0.236L0.415,-0.162C0.391,-0.101 0.334,-0.068 0.262,-0.068Z" style="fill-rule:nonzero;"/>
                </g>
                <g transform="matrix(158.627,0,0,416.38,259.444,425.377)">
                    <path d="M0.496,-0L0.614,-0L0.369,-0.311L0.592,-0.53L0.476,-0.53L0.187,-0.266L0.187,-0.742L0.091,-0.742L0.091,-0L0.187,-0L0.187,-0.145L0.297,-0.247L0.496,-0Z" style="fill-rule:nonzero;"/>
                </g>
                <g transform="matrix(158.627,0,0,416.38,358.744,425.377)">
                    <path d="M0.359,-0.1C0.339,-0.084 0.312,-0.075 0.284,-0.075C0.231,-0.075 0.201,-0.107 0.201,-0.164L0.201,-0.451L0.353,-0.451L0.353,-0.53L0.201,-0.53L0.201,-0.646L0.105,-0.646L0.105,-0.53L0.015,-0.53L0.015,-0.451L0.105,-0.451L0.105,-0.16C0.105,-0.053 0.166,0.006 0.273,0.006C0.316,0.006 0.36,-0.006 0.389,-0.031L0.359,-0.1Z" style="fill-rule:nonzero;"/>
                </g>
                <g transform="matrix(158.627,0,0,416.38,426.002,425.377)">
                    <path d="M0.139,-0.632C0.177,-0.632 0.204,-0.66 0.204,-0.696C0.204,-0.73 0.176,-0.757 0.139,-0.757C0.102,-0.757 0.074,-0.729 0.074,-0.694C0.074,-0.659 0.102,-0.632 0.139,-0.632ZM0.091,-0L0.187,-0L0.187,-0.53L0.091,-0.53L0.091,-0Z" style="fill-rule:nonzero;"/>
                </g>
            </g>
        </g>
    </g>
</svg>
